PathFileType	4	(X/Y/Z)	Patient4_TMGait_0pt4_01_right_11.trc.trc
DataRate	CameraRate	NumFrames	NumMarkers	Units	OrigDataRate	OrigDataStartFrame	OrigNumFrames
76.502732240437	76.502732240437	5	33	mm	76.502732240437	18	       141
Frame#	Time	Sacral			L.Shoulder			Chest			R.Shoulder			Neck			R.ASIS			L.ASIS			R.Thigh.Superior			R.Thigh.Lateral			R.Thigh.Inferior			R.Patella			L.Thigh.Superior			L.Thigh.Lateral			L.Thigh.Inferior			L.Patella			L.Shank.Superior			L.Shank.Lateral			L.Shank.Inferior			R.Shank.Superior			R.Shank.Lateral			R.Shank.Inferior			R.Heel			R.Midfoot.Superior			R.Midfoot.Lateral			R.Toe			L.Heel			L.Midfoot.Lateral			L.Midfoot.Superior			L.Toe			L.Elbow			L.Wrist			R.Elbow			R.Wrist			
		X1	Y1	Z1	X2	Y2	Z2	X3	Y3	Z3	X4	Y4	Z4	X5	Y5	Z5	X6	Y6	Z6	X7	Y7	Z7	X8	Y8	Z8	X9	Y9	Z9	X10	Y10	Z10	X11	Y11	Z11	X12	Y12	Z12	X13	Y13	Z13	X14	Y14	Z14	X15	Y15	Z15	X16	Y16	Z16	X17	Y17	Z17	X18	Y18	Z18	X19	Y19	Z19	X20	Y20	Z20	X21	Y21	Z21	X22	Y22	Z22	X23	Y23	Z23	X24	Y24	Z24	X25	Y25	Z25	X26	Y26	Z26	X27	Y27	Z27	X28	Y28	Z28	X29	Y29	Z29	X30	Y30	Z30	X31	Y31	Z31	X32	Y32	Z32	X33	Y33	Z33	

18	14.222214285714	792.988536755146	1008.832327388183	446.651707605357	1018.274188275600	1426.508382062813	270.771826782899	1089.847025933244	1361.898452846360	448.219762278717	984.203435914998	1445.288440461971	604.744460586996	977.288279750032	1495.902942144183	422.707098234759	1009.428132115990	947.241039446977	588.765369605708	1022.333200689356	960.642478601143	312.651757569372	1078.841417774871	765.765203920414	564.842488370621	1027.977340084829	647.512919509302	636.645721257616	1115.275210224186	605.260818722240	556.422382367120	1145.326776365631	524.519928039068	573.524194401776	1038.004227938256	738.732937718145	344.924154405161	933.967913880000	633.849734191285	281.699228965893	1000.911987089682	547.498765028340	349.266568737984	989.880574430886	481.103480528779	359.669326770262	960.446428133122	412.514570793553	352.738989603858	863.424711050367	302.449002232202	306.333688360735	906.930818724571	190.103498915461	380.688610552374	1130.236434177171	438.244612527498	584.744761860023	1077.684019688355	324.437589804386	648.952401431643	1149.103212561722	238.899254369539	598.235563602755	1060.277264127423	48.922304048796	569.619267680002	1221.343430269118	127.174984452365	612.004322867646	1144.514149169821	48.440123809637	643.781754244260	1346.575521978747	92.426648011025	636.873984785336	774.399221976206	38.646245176609	432.666928813974	843.709831570840	35.304093911548	348.152374873577	928.606863658568	95.176596072832	370.345119896284	1055.553228988637	41.618624852977	335.297117761297	1074.323053653717	1082.810412857992	147.246200979300	1288.991747240557	932.998880142399	166.478610134175	847.315714973015	1128.934682115500	720.928445698596	844.578131530340	871.504478573198	763.065743064986	
19	14.235285714286	794.335517092652	1007.974527280189	447.877347908877	1018.394287184224	1425.896084396750	272.095945295549	1090.152964070611	1361.620565825455	449.598331836928	984.215225032953	1444.795794723077	606.078845645787	977.266820721239	1495.278695229760	424.053235671184	1010.567045200679	946.299572796540	590.224224322813	1023.843194860335	960.157886970795	314.076404247555	1079.031257295248	763.643353951655	566.137162483102	1026.419008193732	645.260350443348	636.505887187190	1113.564842082966	602.971136476117	556.372364270179	1142.382744534532	522.256974994140	572.647944402657	1038.238105783442	737.822982224687	346.178211449205	933.377231174739	633.552454556714	282.633799338433	999.579389694468	546.694992134870	350.089182338424	988.060823421943	480.148390785748	360.349385586473	958.025412483333	411.805203374916	353.315582664775	859.974421816619	302.619985751748	306.685700654122	902.467114940777	189.746714202183	380.891208628309	1127.234585902522	435.561263033385	583.749118008606	1074.176948186670	321.745163741820	647.296307144213	1145.262422965529	236.287940084946	596.285849174795	1055.904880639781	47.075365816176	566.894455916266	1216.894976467189	124.445988219700	609.284014627695	1139.900780234113	46.385098698522	641.247452267067	1341.959911405823	89.307591483596	634.507691694949	769.119509444920	38.694747407653	432.606491282444	838.434928161857	35.300338975878	348.137201313061	923.359155783232	95.137416581965	370.351861901458	1050.257394992381	41.494416609668	335.307420898103	1074.783621164840	1081.964324775617	149.315473505707	1287.581227240097	929.298885642811	168.414213868803	849.232381174583	1127.488188561119	722.069441894576	850.072364141052	869.761732251725	763.207363205469	
20	14.248357142857	795.872560340903	1006.967476080355	449.347091405724	1018.291848916994	1425.317300474427	273.590749272722	1090.362491317828	1361.429242068046	451.116267827491	984.101751692934	1444.246556645061	607.606455366732	977.055264177384	1494.627368769443	425.589213501039	1012.044744771144	945.344149853386	591.787363582347	1025.498645035154	959.680967216450	315.624157560193	1080.090323644464	761.833015405079	567.364302690361	1025.750926612322	643.103188590154	636.099129523602	1112.947885852521	600.993550693364	556.279119571572	1140.278739700016	519.837665571284	571.668977094409	1038.690396948088	736.899759436781	347.488668051092	932.986302286273	633.224766507663	283.685083527612	998.505734176894	545.863157043514	350.983568380953	986.522146005522	479.109215240659	361.121320543472	955.811054520132	411.033760315156	353.975578958351	856.652342268809	302.817975993425	307.096878825514	898.076436638528	189.381878662518	381.112549237045	1124.401313931963	432.554776408957	582.500311496460	1069.929007612928	319.215829987758	645.406032983361	1139.742325546197	233.251699367597	594.015774476888	1048.104822440733	45.835638743126	564.074903973334	1209.634568001331	120.984162417174	606.208893515275	1131.872402300674	44.424666356981	638.579138217811	1334.240001220379	84.452542342174	631.754464710414	763.831640988526	38.756123878215	432.523122525967	833.164387586626	35.299121829047	348.118741290639	918.112091405263	95.113655697395	370.357930839762	1044.967886781371	41.361603138359	335.315657793244	1074.775311833035	1081.070438604479	151.557146090137	1285.312430945143	925.016268085306	170.163941344373	851.586260488802	1125.751859247531	723.492836395058	856.651534663317	867.775134090817	763.491837779707	
21	14.261428571429	797.582632052934	1005.834048916556	451.061289205145	1017.992166384065	1424.763196338325	275.260435988300	1090.501484123040	1361.315614274663	452.778181124493	983.900168110119	1443.645093063444	609.333328027184	976.691261688199	1493.954380211005	427.311250938452	1013.869518407549	944.380332055322	593.438076032495	1027.274647149943	959.220620249120	317.284465117852	1081.914509045828	760.225667698082	568.504174020942	1025.825530772927	641.021302070296	635.478360478171	1113.229615329028	599.225042321144	556.131495213280	1138.856996578822	517.250031750149	570.532853479561	1039.351934354624	735.974983518799	348.807020114518	932.777682470410	632.874312125552	284.837932109280	997.692625012611	545.010536042957	351.921979015651	985.283351375977	477.986994339052	361.951253311286	953.806226737878	410.206490918224	354.699514471046	853.452993140499	303.055385320984	307.563203594365	893.763844620622	189.022370542525	381.337621437014	1121.755270160315	429.299932500434	581.019162528735	1065.270347135733	316.808157211219	643.415165493344	1133.047253979228	229.876378275698	591.528187923321	1037.795264756819	44.992963086733	561.408600151826	1200.361565058923	117.016988648271	602.925237148687	1121.410070106904	42.584753888302	635.977783750430	1324.340384077525	78.410476527680	628.702679193985	758.534786562643	38.852903932006	432.411687698547	827.902304686956	35.307863931542	348.094152094226	912.873447982639	95.110918585347	370.355912592533	1039.691227681706	41.215378117678	335.317892247064	1074.305613809511	1080.121278637384	153.959722258638	1282.166643395454	920.185745114563	171.719534962313	854.318095321944	1123.784833541736	725.200081848128	864.265610732140	865.638246031246	763.936253611751	
22	14.274500000000	799.439837086162	1004.610537958726	453.014389192903	1017.520261921168	1424.234936346827	277.106159373374	1090.598441065112	1361.277476817489	454.583151012178	983.658188471432	1443.006168961459	611.263585432939	976.219728615285	1493.276591180938	429.217167250847	1016.033730222369	943.429174345374	595.154386976043	1029.142320405479	958.793404190639	319.044762057223	1084.343778406877	758.719581015137	569.533686660070	1026.478839249890	639.023659413020	634.727728712863	1114.157233305339	597.579111410100	555.908839315585	1137.940089710727	514.528111707443	569.211083667724	1040.220633619940	735.069680310591	350.090649307398	932.747560138942	632.514034826331	286.079807306747	997.157942457028	544.152357866199	352.881953004790	984.379424122046	476.788469317868	362.805374131432	952.026478576408	409.336333582071	355.467746055605	850.381900382888	303.354918637256	308.083850822498	889.539718992101	188.687725666361	381.550495489474	1119.316982299127	425.920415636790	579.359156489952	1060.557924002077	314.517707727327	641.464194073220	1125.744900535460	226.318885363297	588.946737445646	1026.026706098765	44.388696110204	559.101428863659	1189.960794257224	112.851197732531	599.609696177428	1109.599285495195	40.931036556359	633.624005715612	1313.259582914226	71.834364940490	625.502269424954	753.230698189423	39.022753817732	432.267715345145	822.654431976804	35.339797809113	348.060245738329	907.657309178038	95.135805666144	370.334742627402	1034.434658123667	41.051163279176	335.309496930813	1073.392064378227	1079.120389439182	156.513561215693	1278.123643026504	914.852871394621	173.081881138120	857.378949838718	1121.656326965300	727.186934090641	872.853388102643	863.457112911953	764.553761051504	
